{
  "accessors": [
    {
      "bufferView": 1,
      "componentType": 5126,
      "count": 8211,
      "max": [
        -4.7270002365112305,
        0.014999999664723873,
        6.559999942779541
      ],
      "min": [
        -14.555999755859375,
        -0.054999999701976776,
        -4.551000118255615
      ],
      "type": "VEC3"
    },
    {
      "bufferView": 1,
      "byteOffset": 98532,
      "componentType": 5126,
      "count": 8211,
      "max": [
        1.0,
        1.0,
        1.0
      ],
      "min": [
        -1.0,
        -1.0,
        -1.0
      ],
      "type": "VEC3"
    },
    {
      "bufferView": 0,
      "componentType": 5125,
      "count": 22914,
      "type": "SCALAR"
    },
    {
      "bufferView": 1,
      "byteOffset": 197064,
      "componentType": 5126,
      "count": 3779,
      "max": [
        18.416000366210938,
        -0.10180000215768814,
        28.931900024414063
      ],
      "min": [
        17.674999237060547,
        -55.90119934082031,
        -26.921100616455078
      ],
      "type": "VEC3"
    },
    {
      "bufferView": 1,
      "byteOffset": 242412,
      "componentType": 5126,
      "count": 3779,
      "max": [
        1.0,
        1.0,
        1.0
      ],
      "min": [
        -1.0,
        -1.0,
        -0.9999999403953552
      ],
      "type": "VEC3"
    },
    {
      "bufferView": 0,
      "byteOffset": 91656,
      "componentType": 5125,
      "count": 15147,
      "type": "SCALAR"
    },
    {
      "bufferView": 1,
      "byteOffset": 287760,
      "componentType": 5126,
      "count": 3816,
      "max": [
        -36.95899963378906,
        -0.10140000283718109,
        28.931800842285156
      ],
      "min": [
        -37.70000076293945,
        -55.9015998840332,
        -26.92289924621582
      ],
      "type": "VEC3"
    },
    {
      "bufferView": 1,
      "byteOffset": 333552,
      "componentType": 5126,
      "count": 3816,
      "max": [
        1.0,
        1.0,
        1.0
      ],
      "min": [
        -1.0,
        -1.0,
        -1.0
      ],
      "type": "VEC3"
    },
    {
      "bufferView": 0,
      "byteOffset": 152244,
      "componentType": 5125,
      "count": 15243,
      "type": "SCALAR"
    },
    {
      "bufferView": 1,
      "byteOffset": 379344,
      "componentType": 5126,
      "count": 3418,
      "max": [
        18.23200035095215,
        -0.22499999403953552,
        28.878599166870117
      ],
      "min": [
        -37.51599884033203,
        -0.9660000205039978,
        -26.868999481201172
      ],
      "type": "VEC3"
    },
    {
      "bufferView": 1,
      "byteOffset": 420360,
      "componentType": 5126,
      "count": 3418,
      "max": [
        0.9999999403953552,
        1.0,
        1.0
      ],
      "min": [
        -1.0,
        -1.0,
        -1.0
      ],
      "type": "VEC3"
    },
    {
      "bufferView": 0,
      "byteOffset": 213216,
      "componentType": 5125,
      "count": 13728,
      "type": "SCALAR"
    },
    {
      "bufferView": 1,
      "byteOffset": 461376,
      "componentType": 5126,
      "count": 3804,
      "max": [
        18.314300537109375,
        -55.44300079345703,
        28.904300689697266
      ],
      "min": [
        -37.59749984741211,
        -56.183998107910156,
        -26.895299911499023
      ],
      "type": "VEC3"
    },
    {
      "bufferView": 1,
      "byteOffset": 507024,
      "componentType": 5126,
      "count": 3804,
      "max": [
        0.9999999403953552,
        1.0,
        1.0
      ],
      "min": [
        -0.9999999403953552,
        -1.0,
        -1.0
      ],
      "type": "VEC3"
    },
    {
      "bufferView": 0,
      "byteOffset": 268128,
      "componentType": 5125,
      "count": 15396,
      "type": "SCALAR"
    },
    {
      "bufferView": 1,
      "byteOffset": 552672,
      "componentType": 5126,
      "count": 24,
      "max": [
        15.491000175476074,
        -3.0280001163482666,
        26.10300064086914
      ],
      "min": [
        -34.775001525878906,
        -53.25699996948242,
        -24.094999313354492
      ],
      "type": "VEC3"
    },
    {
      "bufferView": 1,
      "byteOffset": 552960,
      "componentType": 5126,
      "count": 24,
      "max": [
        1.0,
        1.0,
        1.0
      ],
      "min": [
        -1.0,
        -1.0,
        -1.0
      ],
      "type": "VEC3"
    },
    {
      "bufferView": 0,
      "byteOffset": 329712,
      "componentType": 5125,
      "count": 36,
      "type": "SCALAR"
    },
    {
      "bufferView": 1,
      "byteOffset": 553248,
      "componentType": 5126,
      "count": 3754,
      "max": [
        18.284099578857422,
        -0.10170000046491623,
        -26.312000274658203
      ],
      "min": [
        -37.56610107421875,
        -55.90129852294922,
        -27.054000854492188
      ],
      "type": "VEC3"
    },
    {
      "bufferView": 1,
      "byteOffset": 598296,
      "componentType": 5126,
      "count": 3754,
      "max": [
        0.9999999403953552,
        1.0,
        1.0
      ],
      "min": [
        -1.0,
        -1.0,
        -1.0
      ],
      "type": "VEC3"
    },
    {
      "bufferView": 0,
      "byteOffset": 329856,
      "componentType": 5125,
      "count": 15051,
      "type": "SCALAR"
    },
    {
      "bufferView": 1,
      "byteOffset": 643344,
      "componentType": 5126,
      "count": 3755,
      "max": [
        18.281400680541992,
        -0.10170000046491623,
        29.062999725341797
      ],
      "min": [
        -37.56629943847656,
        -55.90129852294922,
        28.320999145507813
      ],
      "type": "VEC3"
    },
    {
      "bufferView": 1,
      "byteOffset": 688404,
      "componentType": 5126,
      "count": 3755,
      "max": [
        1.0,
        1.0,
        1.0
      ],
      "min": [
        -1.0,
        -1.0,
        -1.0
      ],
      "type": "VEC3"
    },
    {
      "bufferView": 0,
      "byteOffset": 390060,
      "componentType": 5125,
      "count": 15051,
      "type": "SCALAR"
    }
  ],
  "asset": {
    "extras": {
      "author": "Amyyu (https://sketchfab.com/Amyyu)",
      "license": "CC-BY-4.0 (http://creativecommons.org/licenses/by/4.0/)",
      "source": "https://sketchfab.com/3d-models/gan-cube-356s-m-air-dd4768b8fe2841c78e418230e5d9e192",
      "title": "GAN CUBE 356s M air"
    },
    "generator": "Sketchfab-13.28.0",
    "version": "2.0"
  },
  "bufferViews": [
    {
      "buffer": 0,
      "byteLength": 450264,
      "name": "floatBufferViews",
      "target": 34963
    },
    {
      "buffer": 0,
      "byteLength": 733464,
      "byteOffset": 450264,
      "byteStride": 12,
      "name": "floatBufferViews",
      "target": 34962
    }
  ],
  "buffers": [
    {
      "byteLength": 1183728,
      "uri": "scene.bin"
    }
  ],
  "materials": [
    {
      "doubleSided": true,
      "name": "color_102616",
      "pbrMetallicRoughness": {
        "baseColorFactor": [
          0.0025943248801010006,
          0.35664302459622177,
          0.5343164533414101,
          1.0
        ],
        "metallicFactor": 0.0
      }
    },
    {
      "doubleSided": true,
      "name": "color_15277357",
      "pbrMetallicRoughness": {
        "baseColorFactor": [
          0.7511371806237102,
          0.003327214803802701,
          0.02316080302057967,
          1.0
        ],
        "metallicFactor": 0.0
      }
    },
    {
      "doubleSided": true,
      "name": "color_16089887",
      "pbrMetallicRoughness": {
        "baseColorFactor": [
          0.47360804865148487,
          0.11947424931843528,
          0.0,
          1.0
        ],
        "metallicFactor": 0.0
      }
    },
    {
      "doubleSided": true,
      "name": "color_16448250",
      "pbrMetallicRoughness": {
        "baseColorFactor": [
          0.980392,
          0.980392,
          0.980392,
          1.0
        ],
        "metallicFactor": 0.0
      }
    },
    {
      "doubleSided": true,
      "name": "color_16768282",
      "pbrMetallicRoughness": {
        "baseColorFactor": [
          1.0,
          0.7987257024116523,
          0.0,
          1.0
        ],
        "metallicFactor": 0.0
      }
    },
    {
      "doubleSided": true,
      "name": "color_2829873",
      "pbrMetallicRoughness": {
        "baseColorFactor": [
          0.0,
          0.0,
          0.0,
          1.0
        ],
        "metallicFactor": 0.0
      }
    },
    {
      "doubleSided": true,
      "name": "color_3888547",
      "pbrMetallicRoughness": {
        "baseColorFactor": [
          0.0,
          0.030658690390015324,
          0.33745685194987235,
          1.0
        ],
        "metallicFactor": 0.0
      }
    },
    {
      "doubleSided": true,
      "name": "color_4634441",
      "pbrMetallicRoughness": {
        "baseColorFactor": [
          0.0,
          0.2359592270049279,
          0.019810620142532646,
          1.0
        ],
        "metallicFactor": 0.0
      }
    }
  ],
  "meshes": [
    {
      "name": "Object_0",
      "primitives": [
        {
          "attributes": {
            "NORMAL": 1,
            "POSITION": 0
          },
          "indices": 2,
          "material": 0,
          "mode": 4
        }
      ]
    },
    {
      "name": "Object_1",
      "primitives": [
        {
          "attributes": {
            "NORMAL": 4,
            "POSITION": 3
          },
          "indices": 5,
          "material": 1,
          "mode": 4
        }
      ]
    },
    {
      "name": "Object_2",
      "primitives": [
        {
          "attributes": {
            "NORMAL": 7,
            "POSITION": 6
          },
          "indices": 8,
          "material": 2,
          "mode": 4
        }
      ]
    },
    {
      "name": "Object_3",
      "primitives": [
        {
          "attributes": {
            "NORMAL": 10,
            "POSITION": 9
          },
          "indices": 11,
          "material": 3,
          "mode": 4
        }
      ]
    },
    {
      "name": "Object_4",
      "primitives": [
        {
          "attributes": {
            "NORMAL": 13,
            "POSITION": 12
          },
          "indices": 14,
          "material": 4,
          "mode": 4
        }
      ]
    },
    {
      "name": "Object_5",
      "primitives": [
        {
          "attributes": {
            "NORMAL": 16,
            "POSITION": 15
          },
          "indices": 17,
          "material": 5,
          "mode": 4
        }
      ]
    },
    {
      "name": "Object_6",
      "primitives": [
        {
          "attributes": {
            "NORMAL": 19,
            "POSITION": 18
          },
          "indices": 20,
          "material": 6,
          "mode": 4
        }
      ]
    },
    {
      "name": "Object_7",
      "primitives": [
        {
          "attributes": {
            "NORMAL": 22,
            "POSITION": 21
          },
          "indices": 23,
          "material": 7,
          "mode": 4
        }
      ]
    }
  ],
  "nodes": [
    {
      "children": [
        1
      ],
      "matrix": [
        1.0,
        0.0,
        0.0,
        0.0,
        0.0,
        -0.9999996423721313,
        0.0008385974797417983,
        0.0,
        0.0,
        -0.0008385974797417983,
        -0.9999996423721313,
        0.0,
        0.0,
        0.0,
        0.0,
        1.0
      ],
      "name": "Sketchfab_model"
    },
    {
      "children": [
        2,
        3,
        4,
        5,
        6,
        7,
        8,
        9
      ],
      "name": "tinker.obj.cleaner.materialmerger.gles"
    },
    {
      "mesh": 0,
      "name": "Object_2"
    },
    {
      "mesh": 1,
      "name": "Object_3"
    },
    {
      "mesh": 2,
      "name": "Object_4"
    },
    {
      "mesh": 3,
      "name": "Object_5"
    },
    {
      "mesh": 4,
      "name": "Object_6"
    },
    {
      "mesh": 5,
      "name": "Object_7"
    },
    {
      "mesh": 6,
      "name": "Object_8"
    },
    {
      "mesh": 7,
      "name": "Object_9"
    }
  ],
  "scene": 0,
  "scenes": [
    {
      "name": "Sketchfab_Scene",
      "nodes": [
        0
      ]
    }
  ]
}
